<svg width="59" height="61" viewBox="0 0 59 61" fill="none" xmlns="http://www.w3.org/2000/svg">
<path d="M29.5067 40.9422C26.6915 40.9422 23.9916 39.8239 22.001 37.8333C20.0104 35.8426 18.892 33.1428 18.892 30.3276C18.892 27.5124 20.0104 24.8125 22.001 22.8219C23.9916 20.8313 26.6915 19.7129 29.5067 19.7129C32.3219 19.7129 35.0218 20.8313 37.0124 22.8219C39.003 24.8125 40.1213 27.5124 40.1213 30.3276C40.1213 33.1428 39.003 35.8426 37.0124 37.8333C35.0218 39.8239 32.3219 40.9422 29.5067 40.9422ZM52.0401 33.2693C52.1614 32.2989 52.2524 31.3284 52.2524 30.3276C52.2524 29.3268 52.1614 28.326 52.0401 27.2948L58.4392 22.3514C59.0154 21.8965 59.1671 21.0777 58.8031 20.4105L52.7376 9.91712C52.3737 9.24991 51.5548 8.97697 50.8876 9.24991L43.3361 12.2827C41.759 11.0999 40.1213 10.0688 38.2107 9.31057L37.0886 1.27376C37.027 0.916557 36.8409 0.592688 36.5634 0.359543C36.2858 0.126399 35.9347 -0.000969798 35.5722 5.56047e-06H23.4412C22.683 5.56047e-06 22.0461 0.545902 21.9248 1.27376L20.8027 9.31057C18.892 10.0688 17.2544 11.0999 15.6773 12.2827L8.12576 9.24991C7.45855 8.97697 6.63971 9.24991 6.27578 9.91712L0.210266 20.4105C-0.183993 21.0777 -0.0020268 21.8965 0.574197 22.3514L6.97331 27.2948C6.852 28.326 6.76102 29.3268 6.76102 30.3276C6.76102 31.3284 6.852 32.2989 6.97331 33.2693L0.574197 38.3037C-0.0020268 38.7586 -0.183993 39.5775 0.210266 40.2447L6.27578 50.738C6.63971 51.4052 7.45855 51.6479 8.12576 51.4052L15.6773 48.3422C17.2544 49.5553 18.892 50.5864 20.8027 51.3446L21.9248 59.3814C22.0461 60.1092 22.683 60.6551 23.4412 60.6551H35.5722C36.3304 60.6551 36.9673 60.1092 37.0886 59.3814L38.2107 51.3446C40.1213 50.5561 41.759 49.5553 43.3361 48.3422L50.8876 51.4052C51.5548 51.6479 52.3737 51.4052 52.7376 50.738L58.8031 40.2447C59.1671 39.5775 59.0154 38.7586 58.4392 38.3037L52.0401 33.2693Z" fill="#666666"/>
</svg>
