<svg width="421" height="63" viewBox="0 0 421 63" fill="#b70000" xmlns="http://www.w3.org/2000/svg">
<path d="M0 36L60.5 33.5L67 43L84.5 31L93.5 41L105 31L122 46L141.5 0L142.5 35.5L151.5 36L154 41L159.5 28.5L162 34.5L169.5 35.5L183.5 0L198 39.25L199.5 35.5H209L213 26.5L217 34.5L223 1.5L238 41L253.5 1.5L259.5 34.5L266 35L268.5 42L275 33L281 43.5L295.5 0.5L310.5 44.5L319 35.5H339L345.5 24L351.5 39L361 29L363.5 33L421 37H363.5L361 33L351.5 47L345.5 29L340 38H322L309.5 55.5L295.5 19.5L281 55.5L275 38L268.5 47L264.5 38H257L253.5 19.5L238 62.5L223 19.5L217 47.5L213 34.5L210.5 37.5H201.5L196 59.5L183.5 21L171 59.5L168.5 37.5L159.5 36L154 47.5L149 37.5H139L137 26.5L124.5 55.5L105 36L93.5 46L84.5 35L67 46L59.5 36H0Z" fill="#b70000"/>
</svg>
